<!-- Generated by IcoMoon.io -->
<svg version="1.1" xmlns="http://www.w3.org/2000/svg" width="2134" height="1024" viewBox="0 0 2134 1024">
<g id="icomoon-ignore">
</g>
<path fill="#000" d="M2109.119 454.888l-505.988-436.853c-12.539-9.438-28.374-15.115-45.536-15.115-21.436 0-40.803 8.857-54.642 23.112l-0.018 0.019c-13.343 13.702-21.572 32.442-21.572 53.104s8.229 39.401 21.588 53.12l-0.016-0.017 351.687 300.587h-1854.622v150.294h1857.628l-354.693 309.605c-16.636 13.701-27.161 34.3-27.161 57.358 0 20.191 8.071 38.497 21.162 51.868l-0.013-0.013c13.596 13.579 32.369 21.977 53.104 21.977s39.508-8.398 53.105-21.978l-0.001 0.001 500.978-436.853c16.099-14.037 26.215-34.583 26.215-57.491 0-20.476-8.082-39.064-21.229-52.75l0.024 0.025z"></path>
</svg>
