<svg aria-hidden="true" style="position:absolute;width:0;height:0;overflow:hidden" xmlns="http://www.w3.org/2000/svg">
  <defs>
    <symbol id="icon-arrow" viewBox="0 0 67 32">
      <path d="M65.91 14.215 50.098.563a2.363 2.363 0 0 0-1.423-.472c-.67 0-1.275.277-1.708.722l-.001.001c-.417.428-.674 1.014-.674 1.66s.257 1.231.675 1.66l-.001-.001 10.99 9.393H-.001v4.697H58.05l-11.084 9.675a2.314 2.314 0 0 0-.188 3.413c.425.424 1.012.687 1.66.687s1.235-.262 1.66-.687l15.656-13.652a2.377 2.377 0 0 0 .156-3.445l.001.001z"/>
    </symbol>
  </defs>
</svg>
