<svg aria-hidden="true" style="position: absolute; width: 0; height: 0; overflow: hidden;" version="1.1" xmlns="http://www.w3.org/2000/svg" xmlns:xlink="http://www.w3.org/1999/xlink">
<defs>
<symbol id="icon-arrow" viewBox="0 0 67 32">
<path d="M65.91 14.215l-15.812-13.652c-0.392-0.295-0.887-0.472-1.423-0.472-0.67 0-1.275 0.277-1.708 0.722l-0.001 0.001c-0.417 0.428-0.674 1.014-0.674 1.66s0.257 1.231 0.675 1.66l-0.001-0.001 10.99 9.393h-57.957v4.697h58.051l-11.084 9.675c-0.52 0.428-0.849 1.072-0.849 1.792 0 0.631 0.252 1.203 0.661 1.621l-0-0c0.425 0.424 1.012 0.687 1.66 0.687s1.235-0.262 1.66-0.687l-0 0 15.656-13.652c0.503-0.439 0.819-1.081 0.819-1.797 0-0.64-0.253-1.221-0.663-1.648l0.001 0.001z"></path>
</symbol>
</defs>
</svg>
